<?xml version="1.0" encoding="UTF-8" standalone="no"?>
<svg
   xmlns:dc="http://purl.org/dc/elements/1.1/"
   xmlns:cc="http://creativecommons.org/ns#"
   xmlns:rdf="http://www.w3.org/1999/02/22-rdf-syntax-ns#"
   xmlns:svg="http://www.w3.org/2000/svg"
   xmlns="http://www.w3.org/2000/svg"
   xmlns:sodipodi="http://sodipodi.sourceforge.net/DTD/sodipodi-0.dtd"
   xmlns:inkscape="http://www.inkscape.org/namespaces/inkscape"
   version="1.1"
   viewBox="0.0 0.0 288.26246719160105 635.7585301837271"
   fill="none"
   stroke="none"
   stroke-linecap="square"
   stroke-miterlimit="10"
   id="svg2"
   inkscape:version="0.91 r13725"
   sodipodi:docname="3D Sound.svg">
  <metadata
     id="metadata39">
    <rdf:RDF>
      <cc:Work
         rdf:about="">
        <dc:format>image/svg+xml</dc:format>
        <dc:type
           rdf:resource="http://purl.org/dc/dcmitype/StillImage" />
      </cc:Work>
    </rdf:RDF>
  </metadata>
  <defs
     id="defs37" />
  <sodipodi:namedview
     pagecolor="#ffffff"
     bordercolor="#666666"
     borderopacity="1"
     objecttolerance="10"
     gridtolerance="10"
     guidetolerance="10"
     inkscape:pageopacity="0"
     inkscape:pageshadow="2"
     inkscape:window-width="1366"
     inkscape:window-height="744"
     id="namedview35"
     showgrid="false"
     inkscape:zoom="2.0998815"
     inkscape:cx="169.61547"
     inkscape:cy="234.60586"
     inkscape:window-x="0"
     inkscape:window-y="24"
     inkscape:window-maximized="1"
     inkscape:current-layer="g7" />
  <clipPath
     id="p.0">
    <path
       d="m0 0l288.26248 0l0 635.75854l-288.26248 0l0 -635.75854z"
       clip-rule="nonzero"
       id="path5" />
  </clipPath>
  <g
     clip-path="url(#p.0)"
     id="g7">
    <path
       fill="#000000"
       fill-opacity="0.0"
       d="m0 0l288.26248 0l0 635.75854l-288.26248 0z"
       fill-rule="evenodd"
       id="path9" />
    <path
       fill="#2c3e50"
       d="m66.34451 150.19685l155.01176 0l0 0c16.971252 0 33.247406 6.741806 45.24788 18.74228c12.000488 12.000488 18.74231 28.276642 18.74231 45.247894l0 398.00397c0 11.596863 -9.401154 20.997986 -20.998016 20.997986l-240.99611 0c-11.596884 0 -20.998016 -9.401123 -20.998016 -20.997986l0 -398.00397l0 0c0 -35.34079 28.64938 -63.990173 63.99018 -63.990173z"
       fill-rule="evenodd"
       id="path11" />
    <path
       stroke="#999999"
       stroke-width="4.0"
       stroke-linejoin="round"
       stroke-linecap="butt"
       d="m66.34451 150.19685l155.01176 0l0 0c16.971252 0 33.247406 6.741806 45.24788 18.74228c12.000488 12.000488 18.74231 28.276642 18.74231 45.247894l0 398.00397c0 11.596863 -9.401154 20.997986 -20.998016 20.997986l-240.99611 0c-11.596884 0 -20.998016 -9.401123 -20.998016 -20.997986l0 -398.00397l0 0c0 -35.34079 28.64938 -63.990173 63.99018 -63.990173z"
       fill-rule="evenodd"
       id="path13"
       style="stroke:none" />
    <path
       fill="#bdc3c7"
       d="m69.70079 0l146.4252 0l0 230.3622l-146.4252 0z"
       fill-rule="evenodd"
       id="path15" />
    <path
       fill="#27ae60"
       d="m40.700787 235.0l206.29921 0l0 352.18896l-206.29921 0z"
       fill-rule="evenodd"
       id="path17" />
    <path
       fill="#f1c40f"
       d="m47.700787 466.19684l78.29921 0l0 153.98425l-78.29921 0z"
       fill-rule="evenodd"
       id="path19" />
    <path
       fill="#2ecc71"
       d="m163.70079 466.19684l78.29921 0l0 153.98425l-78.29921 0z"
       fill-rule="evenodd"
       id="path21" />
    <path
       d="m 65.99018,150.19685 155.01178,0 0,0 c 16.97124,0 33.24739,6.74181 45.24789,18.74228 12.00049,12.00049 18.74228,28.27664 18.74228,45.24789 l 0,398.00397 c 0,11.59687 -9.40112,20.99799 -20.99801,20.99799 l -240.996102,0 c -11.596885,0 -20.998016,-9.40112 -20.998016,-20.99799 l 0,-398.00397 0,0 c 0,-35.34079 28.64938,-63.99017 63.99018,-63.99017 z"
       id="path23"
       style="fill:#2c3e50;fill-opacity:0.6667;fill-rule:evenodd;stroke:none"
       inkscape:connector-curvature="0" />
    <path
       stroke="#999999"
       stroke-width="4.0"
       stroke-linejoin="round"
       stroke-linecap="butt"
       d="m63.99018 150.19685l155.01178 0l0 0c16.971237 0 33.24739 6.741806 45.247894 18.74228c12.000488 12.000488 18.74228 28.276642 18.74228 45.247894l0 398.00397c0 11.596863 -9.401123 20.997986 -20.998016 20.997986l-240.9961 0c-11.596885 0 -20.998016 -9.401123 -20.998016 -20.997986l0 -398.00397l0 0c0 -35.34079 28.64938 -63.990173 63.99018 -63.990173z"
       fill-rule="evenodd"
       id="path25"
       style="stroke:none" />
    <path
       fill="#2c3e50"
       d="m89.0 63.19685l36.0 0l0 25.98425l-36.0 0z"
       fill-rule="evenodd"
       id="path27" />
    <path
       fill="#2c3e50"
       d="m161.0 63.19685l36.0 0l0 25.98425l-36.0 0z"
       fill-rule="evenodd"
       id="path29" />
    <path
       fill="#000000"
       fill-opacity="0.0"
       d="m180.84251 188.19685l0 416.0l-73.984245 0l0 -416.0z"
       fill-rule="evenodd"
       id="path31" />
    <path
       fill="#ffffff"
       d="m134.88753 199.00935l0.765625 6.375q-2.4375 0.296875 -3.734375 1.625q-1.28125 1.34375 -1.28125 3.25q0 2.03125 1.546875 3.421875q1.546875 1.40625 4.171875 1.40625q2.484375 0 3.9375 -1.34375q1.453125 -1.328125 1.453125 -3.25q0 -1.265625 -0.484375 -3.03125l5.359375 0.734375q-0.0625 2.671875 1.15625 4.078125q1.234375 1.40625 3.28125 1.40625q1.734375 0 2.765625 -1.03125q1.03125 -1.03125 1.03125 -2.75q0 -1.6875 -1.171875 -2.890625q-1.171875 -1.1875 -3.421875 -1.4375l1.03125 -6.078125q3.109375 0.640625 4.96875 1.90625q1.875 1.28125 2.9375 3.5625q1.0625 2.296875 1.0625 5.125q0 4.859375 -3.09375 7.78125q-2.53125 2.421875 -5.71875 2.421875q-4.515625 0 -7.21875 -4.953125q-0.625 2.953125 -2.828125 4.71875q-2.203125 1.78125 -5.328125 1.78125q-4.515625 0 -7.71875 -3.3125q-3.1875076 -3.296875 -3.1875076 -8.21875q0 -4.671875 2.6875 -7.75q2.6875076 -3.0625 7.0312576 -3.546875zm25.234375 28.351562l0 12.6875q0 4.28125 -0.65625 6.53125q-0.890625 3.03125 -3.171875 5.1875q-2.265625 2.15625 -5.5625 3.28125q-3.28125 1.1249847 -8.109375 1.1249847q-4.25 0 -7.3125 -1.0624847q-3.75 -1.28125 -6.078125 -3.671875q-1.7500076 -1.8125 -2.7343826 -4.875q-0.734375 -2.296875 -0.734375 -6.140625l0 -13.0625l34.359383 0zm-5.8125 6.9375l-22.75 0l0 5.1875q0 2.90625 0.328125 4.1875q0.421875 1.6875 1.421875 2.796875q1.015625 1.125 3.3125 1.828125q2.3125 0.703125 6.296875 0.703125q3.984375 0 6.109375 -0.703125q2.140625 -0.703125 3.328125 -1.96875q1.203125 -1.265625 1.625 -3.21875q0.328125 -1.453125 0.328125 -5.6875l0 -3.125zm-17.359375 52.664047l0.65625 6.75q-3.40625 0.609375 -5.0 2.46875q-1.59375 1.875 -1.59375 5.03125q0 3.359375 1.421875 5.046875q1.421875 1.703125 3.3125 1.703125q1.21875 0 2.078125 -0.71875q0.859375 -0.703125 1.484375 -2.484375q0.421875 -1.21875 1.5 -5.5625q1.390625 -5.578125 3.40625 -7.828125q2.828125 -3.15625 6.90625 -3.15625q2.625 0 4.90625 1.484375q2.296875 1.484375 3.484375 4.28125q1.203125 2.8125 1.203125 6.765625q0 6.46875 -2.84375 9.734375q-2.828125 3.28125 -7.5625 3.4375l-0.3125 -6.9375q2.65625 -0.4375 3.8125 -1.90625q1.15625 -1.46875 1.15625 -4.390625q0 -3.03125 -1.234375 -4.734375q-0.796875 -1.109375 -2.140625 -1.109375q-1.21875 0 -2.078125 1.03125q-1.109375 1.3125 -2.3125 6.375q-1.1875 5.0625 -2.46875 7.484375q-1.265625 2.4375 -3.484375 3.796875q-2.21875 1.375 -5.46875 1.375q-2.953125 0 -5.53125 -1.640625q-2.5781326 -1.640625 -3.8437576 -4.640625q-1.25 -3.0 -1.25 -7.46875q0 -6.515625 3.0156326 -10.015625q3.015625 -3.484375 8.78125 -4.171875zm5.78125 32.375q5.25 0 8.8125 1.5625q2.625 1.171875 4.703125 3.203125q2.09375 2.03125 3.109375 4.4375q1.359375 3.21875 1.359375 7.40625q0 7.59375 -4.71875 12.15625q-4.703125 4.5625 -13.09375 4.5625q-8.328125 0 -13.03125 -4.53125q-4.7031326 -4.515625 -4.7031326 -12.09375q0 -7.65625 4.6718826 -12.1875q4.6875 -4.515625 12.890625 -4.515625zm0.234375 7.140625q-5.828125 0 -8.84375 2.6875q-3.015625 2.703125 -3.015625 6.859375q0 4.140625 2.984375 6.796875q3.0 2.671875 8.96875 2.671875q5.90625 0 8.8125 -2.59375q2.90625 -2.59375 2.90625 -6.875q0 -4.296875 -2.9375 -6.921875q-2.9375 -2.625 -8.875 -2.625zm17.15625 31.554688l0 6.9375l-18.609375 0q-4.421875 0 -5.734375 0.25q-2.109375 0.453125 -3.390625 2.125q-1.28125 1.671875 -1.28125 4.578125q0 2.953125 1.203125 4.453125q1.21875 1.5 2.96875 1.796875q1.765625 0.3125 5.84375 0.3125l19.0 0l0 6.9375l-18.046875 0q-6.1875 0 -8.75 -0.5625q-2.546875 -0.5625 -4.3125 -2.078125q-1.7500076 -1.5 -2.7968826 -4.03125q-1.046875 -2.53125 -1.046875 -6.609375q0 -4.921875 1.140625 -7.46875q1.140625 -2.546875 2.9531326 -4.03125q1.828125 -1.46875 3.8125 -1.9375q2.953125 -0.671875 8.71875 -0.671875l18.328125 0zm-34.359383 34.773438l34.359383 0l0 6.75l-22.9375 14.0625l22.9375 0l0 6.453125l-34.359383 0l0 -6.96875l22.406258 -13.84375l-22.406258 0l0 -6.453125zm34.359383 34.570312l0 12.6875q0 4.28125 -0.65625 6.53125q-0.890625 3.03125 -3.171875 5.1875q-2.265625 2.15625 -5.5625 3.28125q-3.28125 1.125 -8.109375 1.125q-4.25 0 -7.3125 -1.0625q-3.75 -1.28125 -6.078125 -3.671875q-1.7500076 -1.8125 -2.7343826 -4.875q-0.734375 -2.296875 -0.734375 -6.140625l0 -13.0625l34.359383 0zm-5.8125 6.9375l-22.75 0l0 5.1875q0 2.90625 0.328125 4.1875q0.421875 1.6875 1.421875 2.796875q1.015625 1.125 3.3125 1.828125q2.3125 0.703125 6.296875 0.703125q3.984375 0 6.109375 -0.703125q2.140625 -0.703125 3.328125 -1.96875q1.203125 -1.265625 1.625 -3.21875q0.328125 -1.453125 0.328125 -5.6875l0 -3.125z"
       fill-rule="nonzero"
       id="path33" />
  </g>
</svg>
