<?xml version="1.0" encoding="UTF-8" standalone="no"?>
<svg
   xmlns:dc="http://purl.org/dc/elements/1.1/"
   xmlns:cc="http://creativecommons.org/ns#"
   xmlns:rdf="http://www.w3.org/1999/02/22-rdf-syntax-ns#"
   xmlns:svg="http://www.w3.org/2000/svg"
   xmlns="http://www.w3.org/2000/svg"
   xmlns:sodipodi="http://sodipodi.sourceforge.net/DTD/sodipodi-0.dtd"
   xmlns:inkscape="http://www.inkscape.org/namespaces/inkscape"
   height="60"
   width="80"
   version="1.1"
   id="svg2"
   inkscape:version="0.91 r13725"
   sodipodi:docname="Micro_sd.svg">
  <metadata
     id="metadata318">
    <rdf:RDF>
      <cc:Work
         rdf:about="">
        <dc:format>image/svg+xml</dc:format>
        <dc:type
           rdf:resource="http://purl.org/dc/dcmitype/StillImage" />
        <dc:title></dc:title>
      </cc:Work>
    </rdf:RDF>
  </metadata>
  <sodipodi:namedview
     pagecolor="#ffffff"
     bordercolor="#666666"
     borderopacity="1"
     objecttolerance="10"
     gridtolerance="10"
     guidetolerance="10"
     inkscape:pageopacity="0"
     inkscape:pageshadow="2"
     inkscape:window-width="1366"
     inkscape:window-height="744"
     id="namedview316"
     showgrid="false"
     inkscape:zoom="1.9361962"
     inkscape:cx="71.042799"
     inkscape:cy="133.53144"
     inkscape:window-x="0"
     inkscape:window-y="24"
     inkscape:window-maximized="1"
     inkscape:current-layer="g132" />
  <defs
     id="defs4">
    <radialGradient
       id="j"
       gradientUnits="userSpaceOnUse"
       cy="685.84003"
       cx="-226.42999"
       gradientTransform="matrix(0,76.54,-54.57,0,37481,17713)"
       r="1">
      <stop
         offset="0"
         id="stop7" />
      <stop
         offset="1"
         id="stop9" />
    </radialGradient>
    <radialGradient
       id="i"
       gradientUnits="userSpaceOnUse"
       cy="778.03003"
       cx="281.57001"
       gradientTransform="matrix(0,-76.54,-54.57,0,42512,21932)"
       r="1">
      <stop
         offset="0"
         id="stop12" />
      <stop
         offset="1"
         id="stop14" />
    </radialGradient>
    <linearGradient
       id="h"
       y2="796.65002"
       gradientUnits="userSpaceOnUse"
       x2="281.32001"
       gradientTransform="matrix(0,-14.225,-4.5354,0,3610.9,4445.4)"
       y1="795.65002"
       x1="281.32001">
      <stop
         stop-color="#cc0"
         offset="0"
         id="stop17" />
      <stop
         stop-color="#E6E600"
         offset="1"
         id="stop19" />
    </linearGradient>
    <linearGradient
       id="g"
       y2="796.59998"
       gradientUnits="userSpaceOnUse"
       x2="275.64999"
       gradientTransform="matrix(0,-14.225,-4.5354,0,3610.6,4364.7)"
       y1="795.59998"
       x1="275.64999">
      <stop
         stop-color="#cc0"
         offset="0"
         id="stop22" />
      <stop
         stop-color="#E6E600"
         offset="1"
         id="stop24" />
    </linearGradient>
    <linearGradient
       id="f"
       y2="796.65002"
       gradientUnits="userSpaceOnUse"
       x2="269.98001"
       gradientTransform="matrix(0,-14.225,-4.5354,0,3610.9,4284.1)"
       y1="795.65002"
       x1="269.98001">
      <stop
         stop-color="#cc0"
         offset="0"
         id="stop27" />
      <stop
         stop-color="#E6E600"
         offset="1"
         id="stop29" />
    </linearGradient>
    <linearGradient
       id="e"
       y2="796.65002"
       gradientUnits="userSpaceOnUse"
       x2="263.23999"
       gradientTransform="matrix(0,-15.874,-4.5354,0,3610.9,4620.7)"
       y1="795.65002"
       x1="263.23999">
      <stop
         stop-color="#cc0"
         offset="0"
         id="stop32" />
      <stop
         stop-color="#E6E600"
         offset="1"
         id="stop34" />
    </linearGradient>
    <linearGradient
       id="d"
       y2="796.59998"
       gradientUnits="userSpaceOnUse"
       x2="258.64999"
       gradientTransform="matrix(0,-14.225,-4.5354,0,3610.6,4122.8)"
       y1="795.59998"
       x1="258.64999">
      <stop
         stop-color="#cc0"
         offset="0"
         id="stop37" />
      <stop
         stop-color="#E6E600"
         offset="1"
         id="stop39" />
    </linearGradient>
    <linearGradient
       id="c"
       y2="796.65002"
       gradientUnits="userSpaceOnUse"
       x2="251.91"
       gradientTransform="matrix(0,-15.874,-4.5354,0,3610.9,4440.7)"
       y1="795.65002"
       x1="251.91">
      <stop
         stop-color="#cc0"
         offset="0"
         id="stop42" />
      <stop
         stop-color="#E6E600"
         offset="1"
         id="stop44" />
    </linearGradient>
    <linearGradient
       id="b"
       y2="796.65002"
       gradientUnits="userSpaceOnUse"
       x2="247.31"
       gradientTransform="matrix(0,-14.225,-4.5354,0,3610.9,3961.5)"
       y1="795.65002"
       x1="247.31">
      <stop
         stop-color="#cc0"
         offset="0"
         id="stop47" />
      <stop
         stop-color="#E6E600"
         offset="1"
         id="stop49" />
    </linearGradient>
    <linearGradient
       id="a"
       y2="796.65002"
       gradientUnits="userSpaceOnUse"
       x2="241.64"
       gradientTransform="matrix(0,-14.225,-4.5354,0,3610.9,3880.9)"
       y1="795.65002"
       x1="241.64">
      <stop
         stop-color="#cc0"
         offset="0"
         id="stop52" />
      <stop
         stop-color="#E6E600"
         offset="1"
         id="stop54" />
    </linearGradient>
  </defs>
  <g
     id="g4491"
     transform="translate(-134.867,3.7180005)">
    <g
       transform="matrix(0,1,-1,0,595.657,1.352)"
       id="g132">
      <path
         d="m 52.204094,382.20648 -0.62,-0.41 -45.4300003,0 -1.13,0.57 0,1.13 0,22.4 -7.09,8.5 0.06,7.74 0.29,0.48 0.57,0.28 1.98999996,0 0,5.11 -2.90999996,3.97 0,25.89 0.13,0.4 0.51,0.07 53.3800003,0 0.34,-0.27 0.061,-0.26 0,-47.83 0,-4.2 0.149,-22.83 -0.3,-0.74 z"
         stroke-miterlimit="3"
         id="path134"
         style="fill:#2e2e2e;fill-opacity:1;stroke:none;stroke-width:0.72000003;stroke-linecap:round;stroke-linejoin:round;stroke-miterlimit:3"
         inkscape:connector-curvature="0" />
    </g>
    <g
       style="fill:#f9e494;fill-opacity:1"
       transform="matrix(0,1,-1,0,650.99052,7.9320937)"
       id="g136">
      <rect
         transform="matrix(2.5789e-6,1,-1,2.5789e-6,452.97,448.44)"
         height="4.5349998"
         width="14.225"
         y="448.44"
         x="-4.8439999"
         id="rect138"
         style="fill:#f9e494;fill-opacity:1" />
    </g>
    <g
       transform="matrix(0,1,-1,0,650.93052,13.601094)"
       id="g140"
       style="fill:#f9e494;fill-opacity:1">
      <rect
         transform="matrix(2.5789e-6,1,-1,2.5789e-6,452.97,448.44)"
         height="4.5349998"
         width="14.225"
         y="448.44"
         x="-4.8449998"
         id="rect142"
         style="fill:#f9e494;fill-opacity:1" />
    </g>
    <g
       style="fill:#f9e494;fill-opacity:1"
       transform="matrix(0,1,-1,0,650.99052,19.270094)"
       id="g144">
      <rect
         transform="matrix(2.5789e-6,1,-1,2.5789e-6,452.97,448.44)"
         height="4.5349998"
         width="14.225"
         y="448.44"
         x="-4.8439999"
         id="rect146"
         style="fill:#f9e494;fill-opacity:1" />
    </g>
    <g
       style="fill:#f9e494;fill-opacity:1"
       transform="matrix(0,1,-1,0,650.99052,24.940094)"
       id="g148">
      <rect
         transform="matrix(2.5789e-6,1,-1,2.5789e-6,452.15,447.61)"
         height="4.5349998"
         width="15.874"
         y="447.60999"
         x="-5.6690001"
         id="rect150"
         style="fill:#f9e494;fill-opacity:1" />
    </g>
    <g
       style="fill:#f9e494;fill-opacity:1"
       transform="matrix(0,1,-1,0,650.93052,30.609094)"
       id="g152">
      <rect
         transform="matrix(2.5789e-6,1,-1,2.5789e-6,452.97,448.44)"
         height="4.5359998"
         width="14.225"
         y="448.44"
         x="-4.8449998"
         id="rect154"
         style="fill:#f9e494;fill-opacity:1" />
    </g>
    <g
       style="fill:#f9e494;fill-opacity:1"
       transform="matrix(0,1,-1,0,650.99052,36.278094)"
       id="g156">
      <rect
         transform="matrix(2.5789e-6,1,-1,2.5789e-6,452.15,447.61)"
         height="4.5349998"
         width="15.874"
         y="447.60999"
         x="-5.6690001"
         id="rect158"
         style="fill:#f9e494;fill-opacity:1" />
    </g>
    <g
       style="fill:#f9e494;fill-opacity:1"
       transform="matrix(0,1,-1,0,650.99052,41.948094)"
       id="g160">
      <rect
         transform="matrix(2.5789e-6,1,-1,2.5789e-6,452.97,448.44)"
         height="4.5349998"
         width="14.225"
         y="448.44"
         x="-4.8439999"
         id="rect162"
         style="fill:#f9e494;fill-opacity:1" />
    </g>
    <g
       style="fill:#f9e494;fill-opacity:1"
       transform="matrix(0,1,-1,0,650.99052,47.617094)"
       id="g164">
      <rect
         transform="matrix(2.5789e-6,1,-1,2.5789e-6,452.97,448.44)"
         height="4.5349998"
         width="14.225"
         y="448.44"
         x="-4.8449998"
         id="rect166"
         style="fill:#f9e494;fill-opacity:1" />
    </g>
    <g
       transform="translate(134.35052,-404.03791)"
       id="g224">
      <desc
         id="desc226">MCSD07AUG27 MADE IN JAPAN</desc>
      <rect
         height="15.804"
         width="51.868"
         y="442.01001"
         x="0"
         id="rect228"
         style="fill:none" />
      <g
         enable-background="new    "
         id="g230"
         style="fill:#ffffff">
        <path
           d="m 13.003,448.72 0,-2.86 0.57,0 0.682,2.02 c 0.063,0.19 0.108,0.33 0.137,0.43 0.033,-0.11 0.084,-0.26 0.154,-0.46 l 0.689,-1.99 0.51,0 0,2.86 -0.367,0 0,-2.4 -0.836,2.4 -0.342,0 -0.83,-2.44 0,2.44 -0.367,0 z"
           id="path232"
           inkscape:connector-curvature="0" />
        <path
           d="m 18.393,447.71 0.379,0.1 c -0.079,0.31 -0.222,0.55 -0.428,0.71 -0.207,0.16 -0.459,0.25 -0.758,0.25 -0.309,0 -0.559,-0.07 -0.752,-0.19 -0.193,-0.13 -0.341,-0.31 -0.441,-0.55 -0.102,-0.23 -0.152,-0.49 -0.152,-0.77 0,-0.29 0.057,-0.55 0.172,-0.78 0.113,-0.22 0.275,-0.39 0.485,-0.5 0.21,-0.12 0.441,-0.17 0.694,-0.17 0.285,0 0.526,0.07 0.722,0.21 0.194,0.15 0.331,0.36 0.407,0.62 l -0.375,0.09 c -0.066,-0.21 -0.162,-0.36 -0.288,-0.46 -0.126,-0.09 -0.284,-0.14 -0.476,-0.14 -0.219,0 -0.402,0.05 -0.551,0.16 -0.146,0.1 -0.25,0.25 -0.311,0.42 -0.06,0.18 -0.09,0.36 -0.09,0.55 0,0.25 0.036,0.46 0.107,0.64 0.07,0.18 0.181,0.32 0.33,0.41 0.15,0.09 0.313,0.13 0.486,0.13 0.213,0 0.393,-0.06 0.539,-0.18 0.15,-0.12 0.25,-0.3 0.301,-0.55 z"
           id="path234"
           inkscape:connector-curvature="0" />
        <path
           d="m 19.114,447.8 0.359,-0.03 c 0.018,0.14 0.057,0.26 0.117,0.35 0.063,0.09 0.158,0.17 0.287,0.22 0.129,0.06 0.275,0.09 0.437,0.09 0.144,0 0.271,-0.02 0.38,-0.07 0.111,-0.04 0.192,-0.1 0.246,-0.17 0.054,-0.08 0.08,-0.16 0.08,-0.25 0,-0.09 -0.025,-0.16 -0.076,-0.23 -0.052,-0.07 -0.137,-0.12 -0.256,-0.17 -0.076,-0.03 -0.246,-0.08 -0.507,-0.14 -0.262,-0.06 -0.445,-0.12 -0.551,-0.18 -0.137,-0.07 -0.239,-0.16 -0.306,-0.27 -0.067,-0.1 -0.102,-0.22 -0.102,-0.35 0,-0.15 0.041,-0.28 0.123,-0.41 0.082,-0.12 0.201,-0.22 0.358,-0.29 0.157,-0.06 0.332,-0.09 0.524,-0.09 0.211,0 0.398,0.03 0.56,0.1 0.162,0.07 0.286,0.17 0.373,0.3 0.087,0.13 0.134,0.29 0.14,0.45 l -0.363,0.03 c -0.02,-0.18 -0.084,-0.31 -0.197,-0.41 -0.111,-0.09 -0.277,-0.13 -0.496,-0.13 -0.227,0 -0.393,0.04 -0.498,0.12 -0.104,0.09 -0.156,0.19 -0.156,0.31 0,0.1 0.037,0.18 0.111,0.25 0.072,0.07 0.262,0.13 0.568,0.2 0.306,0.07 0.516,0.13 0.631,0.19 0.166,0.07 0.289,0.17 0.367,0.29 0.08,0.11 0.119,0.25 0.119,0.4 0,0.15 -0.043,0.3 -0.13,0.43 -0.087,0.14 -0.212,0.24 -0.375,0.32 -0.163,0.07 -0.347,0.11 -0.55,0.11 -0.26,0 -0.476,-0.04 -0.65,-0.11 -0.174,-0.08 -0.312,-0.19 -0.411,-0.35 -0.097,-0.15 -0.15,-0.32 -0.156,-0.51 z"
           id="path236"
           inkscape:connector-curvature="0" />
        <path
           d="m 21.907,448.72 0,-2.86 0.986,0 c 0.223,0 0.393,0.01 0.51,0.04 0.164,0.04 0.305,0.1 0.42,0.2 0.151,0.13 0.265,0.29 0.34,0.49 0.074,0.2 0.111,0.43 0.111,0.68 0,0.22 -0.025,0.41 -0.076,0.58 -0.051,0.17 -0.115,0.31 -0.195,0.42 -0.079,0.11 -0.166,0.19 -0.26,0.26 -0.095,0.06 -0.209,0.11 -0.342,0.14 -0.134,0.03 -0.287,0.05 -0.461,0.05 l -1.033,0 z m 0.379,-0.34 0.611,0 c 0.189,0 0.338,-0.02 0.445,-0.05 0.107,-0.04 0.192,-0.09 0.256,-0.15 0.09,-0.09 0.16,-0.21 0.211,-0.36 0.05,-0.15 0.074,-0.34 0.074,-0.55 0,-0.3 -0.049,-0.53 -0.146,-0.69 -0.099,-0.16 -0.219,-0.27 -0.359,-0.32 -0.102,-0.04 -0.265,-0.06 -0.49,-0.06 l -0.602,0 0,2.18 z"
           id="path238"
           inkscape:connector-curvature="0" />
        <path
           d="m 24.656,447.31 c 0,-0.34 0.034,-0.61 0.104,-0.82 0.07,-0.21 0.174,-0.37 0.311,-0.48 0.137,-0.11 0.311,-0.17 0.519,-0.17 0.153,0 0.288,0.04 0.405,0.1 0.117,0.06 0.213,0.15 0.287,0.27 0.074,0.11 0.134,0.25 0.177,0.42 0.043,0.17 0.064,0.39 0.064,0.68 0,0.33 -0.034,0.61 -0.104,0.81 -0.069,0.21 -0.173,0.37 -0.31,0.48 -0.137,0.11 -0.311,0.17 -0.521,0.17 -0.276,0 -0.493,-0.1 -0.65,-0.3 -0.187,-0.24 -0.282,-0.63 -0.282,-1.16 z m 0.363,0 c 0,0.47 0.055,0.78 0.165,0.94 0.109,0.15 0.244,0.23 0.405,0.23 0.161,0 0.296,-0.08 0.405,-0.24 0.11,-0.15 0.165,-0.46 0.165,-0.93 0,-0.47 -0.055,-0.79 -0.164,-0.94 -0.109,-0.15 -0.246,-0.23 -0.41,-0.23 -0.161,0 -0.29,0.07 -0.386,0.2 -0.12,0.18 -0.18,0.5 -0.18,0.97 z"
           id="path240"
           inkscape:connector-curvature="0" />
        <path
           d="m 26.9,446.23 0,-0.34 1.855,0 0,0.28 c -0.183,0.19 -0.362,0.45 -0.541,0.77 -0.179,0.32 -0.317,0.65 -0.415,0.99 -0.069,0.24 -0.114,0.5 -0.134,0.79 l -0.363,0 c 0.004,-0.23 0.048,-0.5 0.132,-0.82 0.086,-0.32 0.207,-0.62 0.364,-0.92 0.157,-0.3 0.325,-0.55 0.504,-0.75 l -1.402,0 z"
           id="path242"
           inkscape:connector-curvature="0" />
        <path
           d="m 28.934,448.72 1.1,-2.86 0.411,0 1.17,2.86 -0.432,0 -0.331,-0.87 -1.203,0 -0.313,0.87 -0.402,0 z m 0.823,-1.18 0.977,0 -0.3,-0.79 c -0.093,-0.24 -0.161,-0.44 -0.205,-0.6 -0.037,0.19 -0.089,0.37 -0.155,0.55 l -0.317,0.84 z"
           id="path244"
           inkscape:connector-curvature="0" />
        <path
           d="m 33.793,445.86 0.379,0 0,1.65 c 0,0.29 -0.032,0.52 -0.098,0.69 -0.065,0.16 -0.183,0.3 -0.353,0.41 -0.17,0.1 -0.393,0.16 -0.668,0.16 -0.268,0 -0.487,-0.05 -0.658,-0.14 -0.17,-0.09 -0.291,-0.23 -0.364,-0.4 -0.073,-0.18 -0.109,-0.42 -0.109,-0.72 l 0,-1.65 0.379,0 0,1.65 c 0,0.25 0.022,0.43 0.069,0.55 0.046,0.11 0.125,0.2 0.238,0.27 0.111,0.06 0.25,0.09 0.412,0.09 0.278,0 0.477,-0.06 0.596,-0.19 0.117,-0.12 0.177,-0.36 0.177,-0.72 l 0,-1.65 z"
           id="path246"
           inkscape:connector-curvature="0" />
        <path
           d="m 36.142,447.6 0,-0.34 1.215,0 0,1.06 c -0.187,0.15 -0.378,0.26 -0.576,0.34 -0.198,0.07 -0.401,0.11 -0.609,0.11 -0.281,0 -0.536,-0.06 -0.767,-0.18 -0.231,-0.12 -0.403,-0.3 -0.521,-0.53 -0.118,-0.22 -0.176,-0.48 -0.176,-0.76 0,-0.28 0.058,-0.54 0.175,-0.78 0.117,-0.24 0.284,-0.42 0.503,-0.54 0.219,-0.12 0.471,-0.17 0.756,-0.17 0.207,0 0.394,0.03 0.562,0.1 0.168,0.07 0.299,0.16 0.394,0.28 0.095,0.12 0.167,0.27 0.217,0.47 l -0.342,0.09 c -0.043,-0.15 -0.097,-0.26 -0.16,-0.34 -0.063,-0.09 -0.155,-0.15 -0.273,-0.2 -0.118,-0.05 -0.25,-0.08 -0.395,-0.08 -0.173,0 -0.323,0.03 -0.449,0.08 -0.126,0.05 -0.228,0.12 -0.306,0.21 -0.078,0.08 -0.138,0.18 -0.181,0.28 -0.073,0.18 -0.109,0.37 -0.109,0.58 0,0.25 0.044,0.47 0.132,0.64 0.088,0.17 0.216,0.3 0.384,0.38 0.168,0.09 0.347,0.13 0.535,0.13 0.164,0 0.324,-0.03 0.48,-0.1 0.156,-0.06 0.274,-0.13 0.355,-0.2 l 0,-0.53 -0.844,0 z"
           id="path248"
           inkscape:connector-curvature="0" />
        <path
           d="m 39.621,448.38 0,0.34 -1.898,0 c -0.003,-0.08 0.011,-0.17 0.042,-0.24 0.048,-0.13 0.125,-0.26 0.232,-0.39 0.105,-0.12 0.26,-0.27 0.461,-0.43 0.311,-0.26 0.521,-0.46 0.631,-0.6 0.11,-0.15 0.165,-0.29 0.165,-0.43 0,-0.14 -0.05,-0.25 -0.149,-0.35 -0.1,-0.1 -0.23,-0.14 -0.391,-0.14 -0.17,0 -0.305,0.05 -0.406,0.15 -0.103,0.1 -0.154,0.24 -0.155,0.42 l -0.363,-0.04 c 0.024,-0.27 0.118,-0.47 0.28,-0.61 0.162,-0.14 0.379,-0.22 0.652,-0.22 0.275,0 0.494,0.08 0.654,0.23 0.16,0.16 0.241,0.34 0.241,0.57 0,0.11 -0.023,0.23 -0.071,0.34 -0.047,0.11 -0.125,0.22 -0.233,0.35 -0.108,0.12 -0.29,0.29 -0.542,0.5 -0.213,0.18 -0.348,0.3 -0.408,0.36 -0.06,0.06 -0.109,0.13 -0.148,0.19 l 1.406,0 z"
           id="path250"
           inkscape:connector-curvature="0" />
        <path
           d="m 40.018,446.23 0,-0.34 1.855,0 0,0.28 c -0.183,0.19 -0.363,0.45 -0.541,0.77 -0.18,0.32 -0.317,0.65 -0.414,0.99 -0.07,0.24 -0.115,0.5 -0.135,0.79 l -0.363,0 c 0.004,-0.23 0.047,-0.5 0.133,-0.82 0.084,-0.32 0.205,-0.62 0.363,-0.92 0.157,-0.3 0.325,-0.55 0.504,-0.75 l -1.402,0 z"
           id="path252"
           inkscape:connector-curvature="0" />
      </g>
      <g
         enable-background="new    "
         id="g254"
         style="fill:#ffffff">
        <path
           d="m 11.913,453.52 0,-2.86 0.57,0 0.682,2.02 c 0.063,0.19 0.108,0.33 0.137,0.43 0.033,-0.11 0.084,-0.26 0.154,-0.46 l 0.689,-1.99 0.51,0 0,2.86 -0.367,0 0,-2.4 -0.836,2.4 -0.342,0 -0.83,-2.44 0,2.44 -0.367,0 z"
           id="path256"
           inkscape:connector-curvature="0" />
        <path
           d="m 14.95,453.52 1.1,-2.86 0.41,0 1.17,2.86 -0.432,0 -0.33,-0.87 -1.203,0 -0.314,0.87 -0.401,0 z m 0.822,-1.18 0.977,0 -0.301,-0.79 c -0.092,-0.24 -0.16,-0.44 -0.205,-0.6 -0.037,0.19 -0.088,0.37 -0.154,0.55 l -0.317,0.84 z"
           id="path258"
           inkscape:connector-curvature="0" />
        <path
           d="m 17.929,453.52 0,-2.86 0.986,0 c 0.223,0 0.393,0.01 0.51,0.04 0.164,0.04 0.305,0.1 0.42,0.2 0.151,0.13 0.265,0.29 0.34,0.49 0.074,0.2 0.111,0.43 0.111,0.68 0,0.22 -0.025,0.41 -0.076,0.58 -0.051,0.17 -0.115,0.31 -0.195,0.42 -0.079,0.11 -0.166,0.19 -0.26,0.26 -0.095,0.06 -0.209,0.11 -0.342,0.14 -0.134,0.03 -0.287,0.05 -0.461,0.05 l -1.033,0 z m 0.378,-0.34 0.611,0 c 0.189,0 0.338,-0.02 0.445,-0.05 0.107,-0.04 0.192,-0.09 0.256,-0.15 0.09,-0.09 0.16,-0.21 0.211,-0.36 0.05,-0.15 0.074,-0.34 0.074,-0.55 0,-0.3 -0.049,-0.53 -0.146,-0.69 -0.099,-0.16 -0.219,-0.27 -0.359,-0.32 -0.102,-0.04 -0.265,-0.06 -0.49,-0.06 l -0.602,0 0,2.18 z"
           id="path260"
           inkscape:connector-curvature="0" />
        <path
           d="m 20.825,453.52 0,-2.86 2.07,0 0,0.34 -1.691,0 0,0.87 1.582,0 0,0.34 -1.582,0 0,0.97 1.758,0 0,0.34 -2.137,0 z"
           id="path262"
           inkscape:connector-curvature="0" />
        <path
           d="m 24.664,453.52 0,-2.86 0.379,0 0,2.86 -0.379,0 z"
           id="path264"
           inkscape:connector-curvature="0" />
        <path
           d="m 25.705,453.52 0,-2.86 0.389,0 1.506,2.25 0,-2.25 0.363,0 0,2.86 -0.389,0 -1.506,-2.25 0,2.25 -0.363,0 z"
           id="path266"
           inkscape:connector-curvature="0" />
        <path
           d="m 29.517,452.71 0.344,-0.05 c 0.009,0.22 0.05,0.37 0.122,0.45 0.072,0.08 0.173,0.12 0.301,0.12 0.094,0 0.176,-0.02 0.244,-0.07 0.068,-0.04 0.115,-0.1 0.143,-0.18 0.025,-0.07 0.038,-0.19 0.038,-0.35 l 0,-1.97 0.379,0 0,1.95 c 0,0.24 -0.028,0.42 -0.087,0.55 -0.058,0.14 -0.148,0.23 -0.274,0.3 -0.126,0.07 -0.272,0.11 -0.441,0.11 -0.251,0 -0.442,-0.07 -0.575,-0.22 -0.135,-0.14 -0.198,-0.36 -0.194,-0.64 z"
           id="path268"
           inkscape:connector-curvature="0" />
        <path
           d="m 31.397,453.52 1.1,-2.86 0.411,0 1.17,2.86 -0.432,0 -0.331,-0.87 -1.203,0 -0.313,0.87 -0.402,0 z m 0.823,-1.18 0.977,0 -0.3,-0.79 c -0.093,-0.24 -0.161,-0.44 -0.205,-0.6 -0.037,0.19 -0.089,0.37 -0.155,0.55 l -0.317,0.84 z"
           id="path270"
           inkscape:connector-curvature="0" />
        <path
           d="m 34.377,453.52 0,-2.86 1.079,0 c 0.189,0 0.335,0.01 0.436,0.02 0.141,0.03 0.258,0.07 0.354,0.14 0.094,0.06 0.171,0.16 0.229,0.27 0.059,0.12 0.087,0.25 0.087,0.39 0,0.25 -0.077,0.45 -0.231,0.62 -0.156,0.17 -0.436,0.26 -0.84,0.26 l -0.733,0 0,1.16 -0.381,0 z m 0.379,-1.5 0.739,0 c 0.244,0 0.418,-0.05 0.521,-0.14 0.103,-0.09 0.154,-0.22 0.154,-0.38 0,-0.12 -0.03,-0.23 -0.091,-0.31 -0.061,-0.09 -0.141,-0.14 -0.238,-0.17 C 35.777,451 35.659,451 35.487,451 l -0.731,0 0,1.02 z"
           id="path272"
           inkscape:connector-curvature="0" />
        <path
           d="m 36.436,453.52 1.1,-2.86 0.411,0 1.17,2.86 -0.432,0 -0.331,-0.87 -1.203,0 -0.313,0.87 -0.402,0 z m 0.823,-1.18 0.977,0 -0.3,-0.79 c -0.093,-0.24 -0.161,-0.44 -0.205,-0.6 -0.037,0.19 -0.089,0.37 -0.155,0.55 l -0.317,0.84 z"
           id="path274"
           inkscape:connector-curvature="0" />
        <path
           d="m 39.413,453.52 0,-2.86 0.389,0 1.506,2.25 0,-2.25 0.363,0 0,2.86 -0.389,0 -1.506,-2.25 0,2.25 -0.363,0 z"
           id="path276"
           inkscape:connector-curvature="0" />
      </g>
    </g>
  </g>
</svg>
