<?xml version="1.0" encoding="UTF-8" standalone="no"?>
<!-- Created with Inkscape (http://www.inkscape.org/) -->

<svg
   xmlns:dc="http://purl.org/dc/elements/1.1/"
   xmlns:cc="http://creativecommons.org/ns#"
   xmlns:rdf="http://www.w3.org/1999/02/22-rdf-syntax-ns#"
   xmlns:svg="http://www.w3.org/2000/svg"
   xmlns="http://www.w3.org/2000/svg"
   xmlns:sodipodi="http://sodipodi.sourceforge.net/DTD/sodipodi-0.dtd"
   xmlns:inkscape="http://www.inkscape.org/namespaces/inkscape"
   id="svg2"
   version="1.1"
   inkscape:version="0.91 r13725"
   xml:space="preserve"
   width="300"
   height="400"
   viewBox="0 0 300 400"
   sodipodi:docname="Vector_Phone_Charger.svg"><metadata
     id="metadata8"><rdf:RDF><cc:Work
         rdf:about=""><dc:format>image/svg+xml</dc:format><dc:type
           rdf:resource="http://purl.org/dc/dcmitype/StillImage" /><dc:title></dc:title></cc:Work></rdf:RDF></metadata><defs
     id="defs6"><clipPath
       clipPathUnits="userSpaceOnUse"
       id="clipPath18"><path
         d="M 0,980 1400,980 1400,0 0,0 0,980 Z"
         id="path20"
         inkscape:connector-curvature="0" /></clipPath></defs><sodipodi:namedview
     pagecolor="#ffffff"
     bordercolor="#666666"
     borderopacity="1"
     objecttolerance="10"
     gridtolerance="10"
     guidetolerance="10"
     inkscape:pageopacity="0"
     inkscape:pageshadow="2"
     inkscape:window-width="1366"
     inkscape:window-height="744"
     id="namedview4"
     showgrid="false"
     inkscape:zoom="1.0898103"
     inkscape:cx="116.32778"
     inkscape:cy="215.36652"
     inkscape:window-x="0"
     inkscape:window-y="24"
     inkscape:window-maximized="1"
     inkscape:current-layer="g10" /><g
     id="g10"
     inkscape:groupmode="layer"
     inkscape:label="Vector_Phone_Charger"
     transform="matrix(1.25,0,0,-1.25,0,400)"><path
       d="m 205.35014,25.00397 -140.831001,0 0,-13.5 140.831001,0 0,13.5 z"
       style="fill:#e3e4e5;fill-opacity:1;fill-rule:nonzero;stroke:none"
       id="path72"
       inkscape:connector-curvature="0" /><path
       d="m 26.354139,152.36397 89.830001,0 0,112.814 -89.830001,0 0,-112.814 z"
       style="fill:#f1f1f2;fill-opacity:1;fill-rule:nonzero;stroke:none"
       id="path74"
       inkscape:connector-curvature="0" /><path
       d="m 86.269139,287.16897 9,0 0,-21.992 -9,0 0,21.992 z"
       style="fill:#e3e4e5;fill-opacity:1;fill-rule:nonzero;stroke:none"
       id="path76"
       inkscape:connector-curvature="0" /><path
       d="m 87.269139,306.65997 7,0 0,-19.492 -7,0 0,19.492 z"
       style="fill:#c8cacc;fill-opacity:1;fill-rule:nonzero;stroke:none"
       id="path78"
       inkscape:connector-curvature="0" /><path
       d="m 48.269139,306.65997 7,0 0,-19.492 -7,0 0,19.492 z"
       style="fill:#c8cacc;fill-opacity:1;fill-rule:nonzero;stroke:none"
       id="path80"
       inkscape:connector-curvature="0" /><path
       d="m 47.269139,287.16897 9,0 0,-21.992 -9,0 0,21.992 z"
       style="fill:#e3e4e5;fill-opacity:1;fill-rule:nonzero;stroke:none"
       id="path82"
       inkscape:connector-curvature="0" /><path
       d="m 64.519139,11.53697 13.5,0 0,111.956 -13.5,0 0,-111.956 z"
       style="fill:#f1f1f2;fill-opacity:1;fill-rule:nonzero;stroke:none"
       id="path84"
       inkscape:connector-curvature="0" /><path
       d="m 191.85014,11.53697 13.5,0 0,39.223693 -13.5,0 0,-39.223693 z"
       style="fill:#f1f1f2;fill-opacity:1;fill-rule:nonzero;stroke:none"
       id="path86"
       inkscape:connector-curvature="0" /><g
       id="g4527"
       transform="translate(0,-216)"><g
         transform="matrix(-1,0,0,1,185.26664,295.24797)"
         id="g88"><path
           inkscape:connector-curvature="0"
           id="path90"
           style="fill:#e3e4e5;fill-opacity:1;fill-rule:nonzero;stroke:none"
           d="m 0,0 -26.667,0 0,-21.534 c 0,-4.347 3.524,-7.87 7.87,-7.87 l 10.927,0 c 4.347,0 7.87,3.523 7.87,7.87 L 0,0 Z" /></g><path
         inkscape:connector-curvature="0"
         id="path92"
         style="fill:#c8cacc;fill-opacity:1;fill-rule:nonzero;stroke:none"
         d="m 191.05914,308.66897 15.081,0 0,-13.379 -15.081,0 0,13.379 z" /></g><path
       d="m 59.238139,152.36397 24.062,0 0,-30.028 -24.062,0 0,30.028 z"
       style="fill:#e3e4e5;fill-opacity:1;fill-rule:nonzero;stroke:none"
       id="path94"
       inkscape:connector-curvature="0" /></g></svg>